<svg xmlns="http://www.w3.org/2000/svg" xmlns:xlink="http://www.w3.org/1999/xlink" width="500" zoomAndPan="magnify" viewBox="0 0 375 374.999991" height="500" preserveAspectRatio="xMidYMid meet" version="1.0"><defs><g/></defs><g fill="#000000" fill-opacity="1"><g transform="translate(51.596054, 250.258941)"><g><path d="M 13.65625 -42.582031 C 13.996094 -43.054688 14.363281 -43.46875 14.527344 -43.996094 C 15.65625 -48.554688 16.839844 -53.144531 17.816406 -57.84375 C 18.34375 -60.472656 18.261719 -63.144531 17.652344 -65.835938 C 16.597656 -70.496094 13.535156 -72.410156 8.847656 -71.265625 C 8.441406 -71.199219 8.066406 -71.074219 7.722656 -70.894531 C 5.242188 -69.882812 2.914062 -68.585938 0.914062 -66.800781 C -2.964844 -63.289062 -6.109375 -59.210938 -8.601562 -54.742188 C -11.660156 -49.242188 -14.15625 -43.519531 -16.1875 -37.605469 C -16.816406 -35.730469 -17.359375 -33.832031 -17.636719 -31.847656 C -17.867188 -30.332031 -17.746094 -28.707031 -17.597656 -27.167969 C -17.257812 -24.847656 -15.828125 -23.105469 -13.628906 -22.277344 C -11.988281 -21.671875 -10.207031 -21.214844 -8.519531 -21.074219 C -6.128906 -20.863281 -3.71875 -20.882812 -1.394531 -21.078125 C 3.277344 -21.40625 7.890625 -21.996094 12.53125 -22.382812 C 15.839844 -22.65625 19.238281 -22.898438 22.578125 -22.96875 C 24.355469 -22.949219 26.160156 -22.722656 27.855469 -22.292969 C 31.773438 -21.269531 33.957031 -18.378906 34.242188 -14.34375 C 34.394531 -12.515625 33.929688 -11.167969 32.472656 -9.886719 C 26.5625 -4.792969 21.332031 1.042969 16.488281 7.1875 C 15.441406 8.546875 14.449219 9.875 13.578125 11.289062 C 13.046875 12.230469 12.660156 13.316406 12.390625 14.339844 C 12.175781 15.1875 12.746094 15.988281 13.648438 16.027344 C 14.808594 16.003906 16.027344 15.949219 17.039062 15.492188 C 18.738281 14.816406 20.378906 14.027344 21.722656 12.953125 C 29.761719 6.59375 35.292969 -1.457031 37.792969 -11.363281 C 38.222656 -13.058594 38.773438 -14.523438 40.289062 -15.6875 C 39.625 -15.558594 39.21875 -15.492188 38.609375 -15.394531 C 38.480469 -16.058594 38.441406 -16.550781 38.402344 -17.046875 C 37.914062 -22.296875 34.835938 -25.082031 30.339844 -25.949219 C 28.121094 -26.398438 25.789062 -26.640625 23.550781 -26.566406 C 19.628906 -26.484375 15.625 -26.140625 11.675781 -25.824219 C 7.933594 -25.542969 4.222656 -25.0625 0.472656 -24.925781 C -1.878906 -24.789062 -4.351562 -24.882812 -6.65625 -25.214844 C -10.449219 -25.863281 -12.359375 -28.234375 -12.234375 -32.046875 C -12.1875 -34.054688 -11.820312 -36.007812 -11.277344 -37.910156 C -9.488281 -44.140625 -7.023438 -50.0625 -4.003906 -55.765625 C -2.210938 -59.203125 0.0195312 -62.363281 2.753906 -65.121094 C 3.722656 -66.074219 4.777344 -66.996094 5.925781 -67.746094 C 8.191406 -69.160156 10.503906 -68.539062 11.769531 -66.269531 C 12.34375 -65.320312 12.828125 -64.253906 12.9375 -63.210938 C 13.304688 -60.980469 13.613281 -58.71875 13.632812 -56.449219 C 13.628906 -53.660156 13.308594 -50.921875 13.222656 -48.15625 C 13.113281 -46.410156 13.089844 -44.636719 13.070312 -42.863281 C 13.273438 -42.75 13.480469 -42.636719 13.65625 -42.582031 Z M 17.269531 12.726562 C 16.710938 12.359375 16.960938 11.859375 17.1875 11.449219 C 17.742188 10.273438 18.300781 9.097656 19.007812 8.066406 C 22.871094 2.289062 27.355469 -3.007812 32.164062 -7.960938 C 32.507812 -8.289062 32.847656 -8.617188 33.363281 -9.035156 C 32.589844 -1.429688 23.367188 10.914062 17.269531 12.726562 Z M 17.269531 12.726562 "/></g></g></g><g fill="#000000" fill-opacity="1"><g transform="translate(96.632363, 226.564753)"><g><path d="M 18.640625 -20.824219 C 17.558594 -18.417969 16.503906 -15.953125 15.449219 -13.488281 C 15.226562 -13.078125 15.0625 -12.550781 14.363281 -12.625 C 14.125 -12.792969 13.890625 -12.964844 13.769531 -13.191406 C 13.375 -13.941406 13.011719 -14.632812 12.707031 -15.351562 C 11.914062 -17.136719 11.207031 -19.042969 10.355469 -20.796875 C 9.777344 -22.035156 8.898438 -22.308594 7.660156 -21.875 C 6.503906 -21.414062 5.5625 -20.699219 5.179688 -19.46875 C 4.878906 -18.503906 4.636719 -17.570312 4.425781 -16.574219 C 3.957031 -13.980469 3.515625 -11.324219 2.988281 -8.695312 C 2.648438 -6.972656 2.101562 -5.21875 1.582031 -3.550781 C 1.476562 -3.199219 1.042969 -2.898438 0.503906 -2.394531 C 0.164062 -3.316406 -0.195312 -3.863281 -0.328125 -4.527344 C -1.144531 -7.621094 -1.878906 -10.6875 -2.667969 -13.726562 C -3.011719 -14.9375 -3.128906 -16.273438 -3.988281 -17.214844 C -5.265625 -17.132812 -5.511719 -16.339844 -5.4375 -15.5 C -5.167969 -10.941406 -4.496094 -6.449219 -3.097656 -2.117188 C -2.320312 0.195312 -0.800781 0.714844 1.324219 -0.550781 C 2.042969 -1 2.789062 -1.539062 3.296875 -2.25 C 3.976562 -3.191406 4.59375 -4.253906 4.945312 -5.394531 C 5.738281 -7.9375 6.351562 -10.539062 7.054688 -13.113281 C 7.242188 -13.871094 7.375 -14.601562 7.753906 -15.976562 C 8.273438 -14.707031 8.578125 -13.988281 8.910156 -13.355469 C 9.246094 -12.578125 9.550781 -11.855469 9.972656 -11.195312 C 11.414062 -9.015625 13.457031 -8.621094 15.574219 -10.175781 C 16.207031 -10.65625 16.773438 -11.25 17.167969 -11.898438 C 18.929688 -15.246094 20.253906 -18.734375 20.757812 -22.523438 C 20.808594 -22.84375 20.628906 -23.191406 20.414062 -23.738281 C 19.238281 -22.898438 19.085938 -21.792969 18.640625 -20.824219 Z M 18.640625 -20.824219 "/></g></g></g><g fill="#000000" fill-opacity="1"><g transform="translate(119.639418, 214.460442)"><g><path d="M 14.390625 -26.667969 C 12.828125 -27.828125 11.121094 -27.296875 9.566406 -26.625 C 7.75 -25.890625 6.441406 -24.613281 5.160156 -23.132812 C 2.804688 -20.351562 1.160156 -17.0625 -0.078125 -13.546875 C -0.351562 -12.8125 -0.65625 -11.992188 -0.957031 -11.171875 C -2.667969 -17.910156 -3.648438 -24.664062 -4.949219 -31.324219 C -6.28125 -38.042969 -7.523438 -44.734375 -8.914062 -51.421875 C -10.300781 -58.105469 -11.601562 -64.765625 -13.191406 -71.421875 C -14.414062 -71.367188 -15.101562 -70.859375 -15.136719 -69.8125 C -15.207031 -68.964844 -15.15625 -68.035156 -14.996094 -67.167969 C -14.570312 -63.570312 -14.117188 -59.917969 -13.519531 -56.265625 C -11.097656 -41.75 -8.675781 -27.238281 -6.222656 -12.664062 C -5.128906 -6.261719 -4.007812 0.199219 -2.886719 6.660156 C -2.6875 7.730469 -2.636719 8.804688 -1.722656 9.570312 C 1.46875 9.214844 2.328125 8.46875 2.558594 5.703125 C 2.699219 4.015625 2.636719 2.359375 2.6875 0.640625 C 2.71875 -0.695312 2.804688 -2.0625 2.816406 -3.023438 C 4.414062 -4.453125 5.789062 -5.46875 6.898438 -6.714844 C 9.453125 -9.671875 11.769531 -12.949219 13.585938 -16.472656 C 14.421875 -18.234375 15.050781 -20.109375 15.5625 -22.066406 C 15.964844 -23.675781 15.898438 -25.476562 14.390625 -26.667969 Z M 10.929688 -22.496094 C 11.222656 -21.105469 10.84375 -19.730469 10.347656 -18.441406 C 8.90625 -14.894531 6.761719 -11.855469 4.730469 -8.878906 C 3.683594 -8.769531 3.414062 -9.285156 3.484375 -9.984375 C 3.5 -10.65625 3.660156 -11.328125 3.820312 -12 C 4.894531 -16.382812 6.761719 -20.375 9.964844 -24.335938 C 10.417969 -23.472656 10.804688 -23.015625 10.929688 -22.496094 Z M 10.929688 -22.496094 "/></g></g></g><g fill="#000000" fill-opacity="1"><g transform="translate(142.588956, 202.386391)"><g><path d="M -15.007812 -69.144531 C -15.933594 -68.953125 -16.648438 -68.5 -16.511719 -67.398438 C -16.371094 -66.296875 -16.175781 -65.226562 -15.980469 -64.152344 C -14.953125 -58.15625 -13.898438 -52.101562 -12.898438 -46.015625 C -10.570312 -31.675781 -8.324219 -17.359375 -5.992188 -3.015625 C -5.886719 -2.117188 -5.695312 -1.191406 -5.472656 -0.351562 C -5.160156 0.660156 -4.574219 0.9375 -3.589844 0.714844 C -2.117188 0.304688 -1.148438 -0.644531 -0.800781 -2.222656 C -0.355469 -4.585938 0.0898438 -6.949219 0.589844 -9.34375 C 1.253906 -12.410156 2.007812 -15.449219 2.667969 -18.515625 C 2.804688 -18.957031 3.058594 -19.308594 3.535156 -20.21875 C 4.054688 -17.558594 4.476562 -15.5 4.925781 -13.386719 C 5.738281 -9.335938 7.152344 -5.527344 9.289062 -2.023438 C 9.894531 -1.019531 10.609375 -0.0742188 11.414062 0.753906 C 11.886719 1.238281 12.535156 1.628906 13.152344 1.964844 C 14.207031 2.4375 15.28125 2.242188 16.226562 1.671875 C 17.035156 1.246094 17.894531 0.792969 17.929688 -0.398438 C 15.554688 0.113281 15.351562 0.00390625 14.148438 -1.863281 C 13.757812 -2.464844 13.394531 -3.15625 13.0625 -3.789062 C 11.550781 -6.664062 10.640625 -9.785156 9.847656 -12.964844 C 9.179688 -15.773438 8.511719 -18.578125 7.785156 -21.355469 C 7.503906 -22.308594 7.136719 -23.289062 6.683594 -24.152344 C 5.984375 -25.621094 5.191406 -25.867188 3.664062 -25.28125 C 2.164062 -24.640625 1.167969 -23.601562 0.648438 -22.078125 C -0.308594 -19.152344 -1.207031 -16.253906 -2.109375 -13.359375 C -2.324219 -12.511719 -2.539062 -11.664062 -2.886719 -10.230469 C -3.257812 -11.359375 -3.472656 -11.90625 -3.574219 -12.515625 C -4.660156 -18.625 -5.746094 -24.738281 -6.773438 -30.878906 C -8.398438 -40.671875 -9.882812 -50.46875 -12.117188 -60.164062 C -12.601562 -62.480469 -13.199219 -64.734375 -13.742188 -67.019531 C -13.988281 -67.769531 -14.09375 -68.667969 -15.007812 -69.144531 Z M -15.007812 -69.144531 "/></g></g></g><g fill="#000000" fill-opacity="1"><g transform="translate(159.384105, 193.550244)"><g><path d="M 8.289062 -25.144531 C 7.101562 -26.429688 5.816406 -26.632812 4.324219 -25.703125 C 3.175781 -24.953125 2.441406 -23.976562 2.121094 -22.632812 C 1.589844 -20.152344 1.089844 -17.613281 0.5 -15.097656 C 0.398438 -14.457031 0.238281 -13.785156 -0.0859375 -12.585938 C -1.519531 -15.871094 -1.265625 -19.015625 -2.574219 -21.925781 C -3.9375 -21.722656 -4.539062 -21.1875 -4.574219 -20.140625 C -4.648438 -19.441406 -4.632812 -18.714844 -4.589844 -18.074219 C -4.164062 -12.9375 -3.738281 -7.800781 -3.3125 -2.664062 C -3.234375 -1.824219 -3.074219 -0.953125 -2.851562 -0.117188 C -2.503906 1.242188 -1.566406 1.632812 -0.300781 0.964844 C 0.5625 0.511719 1.304688 -0.171875 1.574219 -1.195312 C 1.957031 -2.277344 2.3125 -3.421875 2.492188 -4.617188 C 2.9375 -6.980469 3.179688 -9.3125 3.566406 -11.644531 C 4.03125 -14.53125 4.550781 -17.449219 5.132812 -20.398438 C 5.234375 -21.039062 5.511719 -21.628906 5.875 -22.476562 C 6.613281 -21.765625 7.175781 -21.253906 7.683594 -20.714844 C 8.128906 -20.285156 8.457031 -19.800781 8.988281 -19.488281 C 9.3125 -19.292969 9.921875 -19.246094 10.296875 -19.371094 C 10.472656 -19.460938 10.660156 -20.078125 10.625 -20.425781 C 10.269531 -22.21875 9.453125 -23.773438 8.289062 -25.144531 Z M 8.289062 -25.144531 "/></g></g></g><g fill="#000000" fill-opacity="1"><g transform="translate(179.515274, 182.958975)"><g><path d="M 13.210938 -20.535156 C 12.585938 -22.558594 11.9375 -24.492188 11.199219 -26.457031 C 10.800781 -27.492188 10.039062 -27.679688 9.03125 -27.222656 C 8.253906 -26.886719 7.710938 -26.382812 7.410156 -25.5625 C 7.246094 -25.035156 7.023438 -24.480469 6.804688 -23.777344 C 6.535156 -24.148438 6.300781 -24.320312 6.238281 -24.578125 C 5.351562 -26.683594 4.351562 -27.1875 2.390625 -26.300781 C 1.5 -25.90625 0.640625 -25.304688 0.0742188 -24.566406 C -0.746094 -23.476562 -1.507812 -22.269531 -2.003906 -20.976562 C -3.757812 -15.796875 -4.199219 -10.496094 -3.363281 -5.132812 C -3.226562 -4.179688 -2.855469 -3.195312 -2.460938 -2.304688 C -1.640625 -0.605469 -0.585938 -0.277344 1.167969 -1.128906 C 2.464844 -1.738281 3.429688 -2.832031 4.042969 -4.039062 C 4.851562 -5.710938 5.632812 -7.441406 6.234375 -9.230469 C 7.023438 -11.773438 7.640625 -14.375 8.34375 -16.949219 C 8.53125 -17.707031 8.804688 -18.441406 9.132812 -19.492188 C 9.554688 -18.832031 9.761719 -18.574219 9.945312 -18.230469 C 10.710938 -16.210938 11.480469 -14.191406 12.25 -12.171875 C 13.289062 -9.636719 14.703125 -7.367188 16.375 -5.308594 C 18.074219 -3.339844 19.148438 -3.246094 21.5625 -4.660156 C 20.105469 -4.777344 19.21875 -5.628906 18.613281 -6.78125 C 17.457031 -9.113281 16.277344 -11.355469 15.296875 -13.777344 C 14.4375 -15.96875 13.953125 -18.285156 13.210938 -20.535156 Z M 0.917969 -3.421875 C -0.375 -5.457031 -0.242188 -7.4375 -0.308594 -9.382812 C -0.34375 -15.3125 0.652344 -20.394531 2.480469 -23.484375 C 4.359375 -22.5625 3.890625 -19.964844 5.765625 -19.335938 C 5.558594 -13.867188 3.4375 -6.730469 0.917969 -3.421875 Z M 0.917969 -3.421875 "/></g></g></g><g fill="#000000" fill-opacity="1"><g transform="translate(201.544528, 171.369097)"><g><path d="M 3.28125 -76.121094 C 0.300781 -75.363281 -0.0664062 -74.949219 0.15625 -72.570312 C 0.261719 -71.671875 0.367188 -70.769531 0.53125 -69.902344 C 1.828125 -61.992188 2.980469 -54.078125 4.367188 -46.140625 C 5.421875 -40.085938 5.78125 -33.960938 5.558594 -27.820312 C 5.265625 -20.984375 3.917969 -14.472656 0.816406 -8.359375 C 0.3125 -7.363281 -0.21875 -6.421875 -0.871094 -5.5625 C -1.125 -5.210938 -1.527344 -4.996094 -1.957031 -4.699219 C -3.054688 -5.664062 -3.3125 -6.851562 -3.390625 -7.984375 C -3.59375 -12.136719 -3.125 -16.128906 -1.78125 -19.996094 C -1.503906 -20.726562 -1.054688 -21.40625 -0.773438 -21.992188 C 0.152344 -22.1875 0.875 -22.347656 1.570312 -22.417969 C 1.546875 -23.582031 1.019531 -23.890625 0.207031 -23.757812 C -1.441406 -23.402344 -2.671875 -22.390625 -3.488281 -21.003906 C -6.09375 -16.328125 -6.890625 -11.28125 -6.492188 -6.058594 C -6.546875 -5.882812 -6.457031 -5.710938 -6.421875 -5.507812 C -5.546875 -2.445312 -3.90625 -1.984375 -1.257812 -3.230469 C -0.824219 -3.382812 -0.457031 -3.800781 -0.0859375 -4.070312 C 1.316406 -5.171875 2.191406 -6.585938 2.855469 -8.113281 C 4.914062 -12.574219 6.390625 -17.167969 7.164062 -21.980469 C 7.257812 -22.914062 7.0625 -23.984375 7.917969 -24.875 C 8.75 -23.992188 8.714844 -22.800781 8.941406 -21.816406 C 10.191406 -16.085938 11.355469 -10.382812 12.667969 -4.679688 C 13.398438 -1.613281 14.332031 1.417969 15.269531 4.453125 C 15.519531 5.347656 15.742188 6.332031 16.976562 6.859375 C 17.199219 6.449219 17.484375 6.152344 17.535156 5.828125 C 17.488281 5.046875 17.386719 4.292969 17.253906 3.480469 C 13.109375 -15.5625 10.09375 -34.835938 7.226562 -54.109375 C 6.347656 -59.964844 5.441406 -65.875 4.507812 -71.699219 C 4.242188 -73.175781 4.269531 -74.660156 3.28125 -76.121094 Z M 3.28125 -76.121094 "/></g></g></g><g fill="#000000" fill-opacity="1"><g transform="translate(223.113629, 160.021313)"><g><path d="M 11.601562 -25.273438 C 10.691406 -24.207031 10.859375 -23.191406 10.761719 -22.257812 C 9.910156 -17.039062 8.238281 -12.121094 5.511719 -7.527344 C 4.785156 -6.261719 4.054688 -4.996094 2.5625 -4.066406 C 2.027344 -4.519531 1.46875 -4.886719 1.109375 -5.429688 C 0.746094 -6.121094 0.496094 -6.871094 0.308594 -7.652344 C -0.214844 -10.460938 -0.738281 -13.269531 -1.207031 -16.109375 C -1.398438 -17.035156 -1.363281 -18.085938 -1.929688 -18.886719 C -4.25 -18.546875 -4.765625 -18.128906 -4.871094 -16.238281 C -5 -12.574219 -4.691406 -8.914062 -3.773438 -5.359375 C -3.648438 -4.984375 -3.527344 -4.609375 -3.402344 -4.234375 C -2.265625 -1.230469 -0.269531 -0.371094 2.667969 -1.769531 C 4.742188 -2.714844 6.25 -4.171875 7.433594 -6.113281 C 10.101562 -10.675781 11.859375 -15.566406 12.273438 -20.925781 C 12.367188 -22.003906 12.316406 -23.078125 12.175781 -24.179688 C 12.167969 -24.46875 11.875 -24.753906 11.601562 -25.273438 Z M -3.683594 -24.867188 C -3.515625 -25.25 -3.40625 -25.601562 -3.386719 -25.980469 C -3.4375 -27.054688 -3.546875 -28.097656 -3.574219 -29.40625 C -5.425781 -29.019531 -6.777344 -28.234375 -7.707031 -26.792969 C -8.4375 -25.671875 -8.085938 -24.167969 -7.144531 -23.632812 C -5.910156 -22.960938 -4.238281 -23.546875 -3.683594 -24.867188 Z M -3.683594 -24.867188 "/></g></g></g><g fill="#000000" fill-opacity="1"><g transform="translate(239.851251, 151.215432)"><g><path d="M 30.105469 -27.371094 C 28.976562 -27.144531 27.761719 -26.941406 26.695312 -26.457031 C 23.152344 -24.8125 20.269531 -22.195312 17.535156 -19.433594 C 16.996094 -18.929688 16.632812 -18.222656 15.675781 -18.085938 C 15.246094 -19.039062 14.964844 -19.992188 14.511719 -20.855469 C 13.875 -22.0625 13.269531 -23.359375 12.460938 -24.476562 C 10.996094 -26.421875 9.128906 -26.761719 6.910156 -25.667969 C 5.296875 -24.96875 4.191406 -23.722656 3.671875 -22.054688 C 3.046875 -20.035156 2.417969 -18.015625 2.316406 -15.980469 C 1.953125 -12.339844 1.972656 -8.675781 1.933594 -4.980469 C 1.902344 -3.644531 1.957031 -2.277344 1.957031 -0.882812 C 1.84375 -0.824219 1.757812 -0.851562 1.640625 -0.789062 C 1.417969 -1.773438 1.164062 -2.667969 0.972656 -3.597656 C -0.203125 -8.339844 -1.289062 -13.054688 -2.429688 -17.742188 C -2.683594 -18.785156 -3.230469 -19.820312 -3.65625 -20.769531 C -3.808594 -21.058594 -4.363281 -21.277344 -4.683594 -21.183594 C -4.941406 -21.121094 -5.25 -20.589844 -5.246094 -20.300781 C -5.128906 -18.820312 -5.011719 -17.339844 -4.777344 -15.921875 C -2.15625 -0.1875 0.523438 15.515625 3.144531 31.246094 C 3.734375 34.460938 4.414062 37.703125 5.0625 40.886719 C 5.164062 41.640625 5.296875 42.453125 6.148438 42.8125 C 8.691406 42.0625 8.773438 41.945312 8.582031 39.625 C 8.5625 38.75 8.457031 37.851562 8.351562 36.953125 C 7.453125 25.894531 6.5 14.867188 5.746094 3.804688 C 5.269531 -2.40625 5.199219 -8.683594 5.738281 -14.917969 C 5.921875 -17.363281 6.480469 -19.789062 6.953125 -22.238281 C 7.058594 -22.734375 7.488281 -23.179688 7.9375 -23.859375 C 8.648438 -23.203125 9.328125 -22.753906 9.863281 -22.152344 C 11.054688 -20.726562 11.992188 -19.085938 12.695312 -17.328125 C 13.429688 -15.65625 13.515625 -14.234375 12.445312 -12.640625 C 11.0625 -10.519531 10.152344 -8.203125 9.765625 -5.726562 C 9.582031 -4.820312 9.574219 -3.714844 9.769531 -2.789062 C 9.996094 -1.660156 10.964844 -1.214844 12.03125 -1.558594 C 13.566406 -1.996094 14.5625 -3.035156 15.082031 -4.554688 C 15.792969 -6.695312 16.210938 -8.96875 16.195312 -11.238281 C 16.1875 -12.921875 16.683594 -14.359375 17.585938 -15.714844 C 19.8125 -19.015625 22.367188 -21.976562 25.511719 -24.511719 C 27 -25.734375 28.582031 -26.640625 30.589844 -26.449219 C 30.734375 -26.453125 30.875 -26.746094 31.132812 -26.953125 C 30.75 -27.121094 30.367188 -27.433594 30.105469 -27.371094 Z M 13.382812 -5.132812 C 13.21875 -6.144531 13.320312 -6.789062 13.917969 -7.46875 C 14.3125 -6.574219 14.179688 -5.992188 13.382812 -5.132812 Z M 13.382812 -5.132812 "/></g></g></g><g fill="#000000" fill-opacity="1"><g transform="translate(179.626509, 255.923438)"><g><path d="M 24.855469 -47.960938 C 22.613281 -57.945312 20.457031 -67.902344 18.304688 -77.859375 C 17.984375 -79.304688 17.695312 -80.695312 17.113281 -82.078125 C 14.878906 -81.855469 14.308594 -81.410156 14.402344 -79.695312 C 14.726562 -76.5625 14.996094 -73.398438 15.671875 -70.300781 C 17.511719 -61.355469 19.527344 -52.503906 21.484375 -43.617188 C 21.707031 -42.632812 21.902344 -41.707031 22.035156 -40.894531 C 21.695312 -40.421875 21.527344 -40.1875 21.328125 -40.007812 C 16.359375 -35.488281 11.394531 -30.964844 6.34375 -26.472656 C 6.058594 -26.175781 5.539062 -26.046875 4.960938 -25.746094 C 4.386719 -28.234375 3.757812 -30.546875 3.21875 -32.832031 C 2.675781 -35.117188 2.105469 -37.460938 1.5625 -39.746094 C 0.933594 -42.058594 0.390625 -44.34375 -0.179688 -46.6875 C -0.777344 -48.941406 -1.003906 -51.320312 -2.035156 -53.421875 C -3.777344 -53.242188 -4.152344 -53.117188 -4.605469 -52.585938 C -5.257812 -51.875 -5.386719 -51 -5.222656 -50.128906 C -5.015625 -48.621094 -4.84375 -47.171875 -4.519531 -45.726562 C -3.246094 -40.226562 -1.910156 -34.761719 -0.578125 -29.292969 C 0.0585938 -26.691406 0.695312 -24.085938 1.386719 -21.511719 C 0.0507812 -20.003906 -1.257812 -18.582031 -2.390625 -17.105469 C -3.492188 -15.570312 -5.148438 -14.253906 -5.042969 -11.816406 C -4.402344 -11.859375 -3.671875 -11.726562 -3.300781 -11.996094 C -2.410156 -12.539062 -1.554688 -13.285156 -0.753906 -13.996094 C 0.242188 -15.035156 0.972656 -16.300781 2.40625 -17.203125 C 2.683594 -16.394531 2.960938 -15.730469 3.148438 -15.097656 C 4.984375 -9.230469 6.675781 -3.363281 8.511719 2.5 C 9.039062 4.058594 9.769531 5.582031 10.554688 7.078125 C 11.3125 8.515625 12.152344 8.441406 13.34375 6.933594 C 12.007812 4.257812 6.757812 -16.1875 6.191406 -21.175781 C 6.304688 -21.382812 6.441406 -21.675781 6.640625 -21.855469 C 11.714844 -26.726562 16.789062 -31.601562 21.863281 -36.472656 C 22.121094 -36.683594 22.527344 -36.75 22.960938 -36.902344 C 23.179688 -36.210938 23.394531 -35.660156 23.550781 -35.082031 C 24.5625 -31.0625 25.519531 -27.011719 26.589844 -23.023438 C 28.480469 -15.9375 30.429688 -8.886719 32.464844 -1.804688 C 32.964844 -0.160156 33.8125 1.453125 34.628906 3.003906 C 35.023438 3.753906 35.371094 3.71875 36.632812 2.90625 C 34.859375 -4.238281 33.050781 -11.441406 31.390625 -18.644531 C 29.667969 -25.964844 27.890625 -33.253906 26.519531 -40.609375 C 28.230469 -42.101562 29.773438 -43.496094 31.402344 -44.867188 C 32.375 -45.675781 33.34375 -46.480469 34.738281 -46.625 C 35.695312 -46.761719 36.496094 -47.328125 36.972656 -48.242188 C 36.632812 -49.164062 35.960938 -49.324219 35.265625 -49.25 C 34.480469 -49.207031 33.613281 -49.042969 33.007812 -48.652344 C 31.371094 -47.71875 29.792969 -46.667969 28.21875 -45.617188 C 27.5 -45.167969 26.8125 -44.65625 25.921875 -44.117188 C 25.226562 -45.4375 25.109375 -46.773438 24.855469 -47.960938 Z M 24.855469 -47.960938 "/></g></g></g><g fill="#000000" fill-opacity="1"><g transform="translate(224.662818, 232.22925)"><g><path d="M 13.210938 -20.535156 C 12.585938 -22.558594 11.9375 -24.492188 11.199219 -26.457031 C 10.800781 -27.492188 10.039062 -27.679688 9.03125 -27.222656 C 8.253906 -26.886719 7.710938 -26.382812 7.410156 -25.5625 C 7.246094 -25.035156 7.023438 -24.480469 6.804688 -23.777344 C 6.535156 -24.148438 6.300781 -24.320312 6.238281 -24.578125 C 5.351562 -26.683594 4.351562 -27.1875 2.390625 -26.300781 C 1.5 -25.90625 0.640625 -25.304688 0.0742188 -24.566406 C -0.746094 -23.476562 -1.507812 -22.269531 -2.003906 -20.976562 C -3.757812 -15.796875 -4.199219 -10.496094 -3.363281 -5.132812 C -3.226562 -4.179688 -2.855469 -3.195312 -2.460938 -2.304688 C -1.640625 -0.605469 -0.585938 -0.277344 1.167969 -1.128906 C 2.464844 -1.738281 3.429688 -2.832031 4.042969 -4.039062 C 4.851562 -5.710938 5.632812 -7.441406 6.234375 -9.230469 C 7.023438 -11.773438 7.640625 -14.375 8.34375 -16.949219 C 8.53125 -17.707031 8.804688 -18.441406 9.132812 -19.492188 C 9.554688 -18.832031 9.761719 -18.574219 9.945312 -18.230469 C 10.710938 -16.210938 11.480469 -14.191406 12.25 -12.171875 C 13.289062 -9.636719 14.703125 -7.367188 16.375 -5.308594 C 18.074219 -3.339844 19.148438 -3.246094 21.5625 -4.660156 C 20.105469 -4.777344 19.21875 -5.628906 18.613281 -6.78125 C 17.457031 -9.113281 16.277344 -11.355469 15.296875 -13.777344 C 14.4375 -15.96875 13.953125 -18.285156 13.210938 -20.535156 Z M 0.917969 -3.421875 C -0.375 -5.457031 -0.242188 -7.4375 -0.308594 -9.382812 C -0.34375 -15.3125 0.652344 -20.394531 2.480469 -23.484375 C 4.359375 -22.5625 3.890625 -19.964844 5.765625 -19.335938 C 5.558594 -13.867188 3.4375 -6.730469 0.917969 -3.421875 Z M 0.917969 -3.421875 "/></g></g></g><g fill="#000000" fill-opacity="1"><g transform="translate(246.692072, 220.639373)"><g><path d="M 16.542969 -16.855469 C 15.25 -14.707031 14.515625 -12.191406 12.734375 -9.855469 C 12.414062 -11.160156 12.132812 -12.113281 12.027344 -13.011719 C 11.648438 -15.96875 11.324219 -18.957031 10.886719 -21.882812 C 10.777344 -22.929688 10.582031 -24 10.238281 -25.070312 C 9.652344 -26.742188 8.628906 -27.011719 6.988281 -26.222656 C 5.921875 -25.734375 5.121094 -25.019531 4.621094 -24.023438 C 3.785156 -22.261719 2.890625 -20.46875 2.171875 -18.621094 C 1.347656 -16.425781 0.726562 -14.117188 0.015625 -11.832031 C -0.148438 -11.453125 -0.402344 -11.097656 -0.820312 -10.214844 C -1.277344 -12.476562 -1.542969 -14.242188 -1.984375 -15.921875 C -2.460938 -17.800781 -3.28125 -18.101562 -4.976562 -17.136719 C -5.320312 -16.957031 -5.488281 -16.574219 -5.832031 -16.246094 C -5.214844 -13.121094 -4.652344 -9.964844 -3.921875 -6.894531 C -3.382812 -4.757812 -1.949219 -4.261719 -0.234375 -5.75 C 0.335938 -6.199219 0.757812 -6.933594 1.121094 -7.640625 C 1.648438 -8.871094 2.113281 -10.21875 2.554688 -11.476562 C 3.261719 -13.761719 3.972656 -16.042969 4.710938 -18.269531 C 5.203125 -19.703125 5.84375 -20.996094 6.425781 -22.402344 C 7.433594 -21.609375 7.21875 -20.617188 7.351562 -19.804688 C 7.882812 -16.707031 8.296875 -13.546875 8.824219 -10.445312 C 9.023438 -9.375 9.480469 -8.367188 9.9375 -7.355469 C 10.421875 -6.4375 11.210938 -6.191406 12.191406 -6.5625 C 12.910156 -6.867188 13.660156 -7.261719 14.171875 -7.824219 C 14.851562 -8.621094 15.472656 -9.535156 15.886719 -10.5625 C 17.496094 -14.347656 19.074219 -18.1875 20.652344 -22.027344 C 20.734375 -22.292969 20.726562 -22.582031 20.832031 -23.222656 C 18.335938 -21.542969 17.691406 -19 16.542969 -16.855469 Z M 16.542969 -16.855469 "/></g></g></g><g fill="#000000" fill-opacity="1"><g transform="translate(269.756643, 208.504802)"><g><path d="M 15.675781 -25.066406 C 14.976562 -23.742188 14.363281 -22.390625 13.839844 -21.015625 C 12.164062 -16.242188 10.578125 -11.441406 8.902344 -6.667969 C 8.574219 -5.757812 8.242188 -4.851562 7.859375 -3.765625 C 5.417969 -5.054688 3.46875 -6.671875 1.742188 -8.554688 C 0.226562 -10.179688 -0.425781 -12.113281 -0.441406 -14.238281 C -0.503906 -17.289062 0.457031 -20.070312 2.414062 -22.492188 C 2.726562 -22.878906 3.332031 -22.976562 3.964844 -23.3125 C 4.433594 -21.867188 4.835938 -20.683594 5.394531 -18.921875 C 6.078125 -19.574219 6.769531 -19.9375 6.847656 -20.347656 C 7.140625 -21.601562 7.289062 -22.855469 7.261719 -24.164062 C 7.210938 -25.238281 6.414062 -25.921875 5.25 -25.894531 C 4.613281 -25.855469 3.886719 -25.695312 3.28125 -25.449219 C -1.644531 -23.371094 -5.320312 -16.808594 -4.542969 -11.5625 C -4.273438 -9.796875 -3.714844 -8.035156 -2.320312 -6.785156 C -0.957031 -5.445312 0.554688 -4.109375 2.121094 -2.949219 C 3.597656 -1.820312 5.160156 -0.804688 6.691406 0.296875 C 6.394531 1.410156 6.152344 2.34375 5.941406 3.335938 C 5.578125 5.4375 5.15625 7.570312 4.910156 9.753906 C 4.8125 10.6875 5.070312 11.726562 5.40625 12.652344 C 5.871094 13.949219 6.921875 14.277344 8.335938 13.753906 C 9.433594 13.324219 10.347656 12.550781 11.054688 11.515625 C 12.066406 9.957031 12.875 8.28125 13.273438 6.382812 C 13.78125 4.28125 13.59375 2.25 12.277344 0.445312 C 12.007812 0.0703125 11.707031 -0.359375 11.410156 -0.789062 C 11.707031 -1.898438 11.976562 -2.921875 12.246094 -3.945312 C 14.148438 -10.234375 16.085938 -16.46875 17.933594 -22.726562 C 18.234375 -23.695312 18.5625 -24.601562 18.773438 -25.59375 C 18.855469 -26.003906 18.699219 -26.4375 18.660156 -26.929688 C 17.0625 -26.894531 16.175781 -26.210938 15.675781 -25.066406 Z M 11.128906 6.777344 C 11.074219 8.347656 10.582031 9.78125 9.148438 10.828125 C 8.925781 8.449219 9.402344 6.289062 10.199219 3.886719 C 11.292969 4.855469 11.226562 5.84375 11.128906 6.777344 Z M 11.128906 6.777344 "/></g></g></g><g fill="#000000" fill-opacity="1"><g transform="translate(290.060371, 197.822746)"><g><path d="M 3.28125 -76.121094 C 0.300781 -75.363281 -0.0664062 -74.949219 0.15625 -72.570312 C 0.261719 -71.671875 0.367188 -70.769531 0.53125 -69.902344 C 1.828125 -61.992188 2.980469 -54.078125 4.367188 -46.140625 C 5.421875 -40.085938 5.78125 -33.960938 5.558594 -27.820312 C 5.265625 -20.984375 3.917969 -14.472656 0.816406 -8.359375 C 0.3125 -7.363281 -0.21875 -6.421875 -0.871094 -5.5625 C -1.125 -5.210938 -1.527344 -4.996094 -1.957031 -4.699219 C -3.054688 -5.664062 -3.3125 -6.851562 -3.390625 -7.984375 C -3.59375 -12.136719 -3.125 -16.128906 -1.78125 -19.996094 C -1.503906 -20.726562 -1.054688 -21.40625 -0.773438 -21.992188 C 0.152344 -22.1875 0.875 -22.347656 1.570312 -22.417969 C 1.546875 -23.582031 1.019531 -23.890625 0.207031 -23.757812 C -1.441406 -23.402344 -2.671875 -22.390625 -3.488281 -21.003906 C -6.09375 -16.328125 -6.890625 -11.28125 -6.492188 -6.058594 C -6.546875 -5.882812 -6.457031 -5.710938 -6.421875 -5.507812 C -5.546875 -2.445312 -3.90625 -1.984375 -1.257812 -3.230469 C -0.824219 -3.382812 -0.457031 -3.800781 -0.0859375 -4.070312 C 1.316406 -5.171875 2.191406 -6.585938 2.855469 -8.113281 C 4.914062 -12.574219 6.390625 -17.167969 7.164062 -21.980469 C 7.257812 -22.914062 7.0625 -23.984375 7.917969 -24.875 C 8.75 -23.992188 8.714844 -22.800781 8.941406 -21.816406 C 10.191406 -16.085938 11.355469 -10.382812 12.667969 -4.679688 C 13.398438 -1.613281 14.332031 1.417969 15.269531 4.453125 C 15.519531 5.347656 15.742188 6.332031 16.976562 6.859375 C 17.199219 6.449219 17.484375 6.152344 17.535156 5.828125 C 17.488281 5.046875 17.386719 4.292969 17.253906 3.480469 C 13.109375 -15.5625 10.09375 -34.835938 7.226562 -54.109375 C 6.347656 -59.964844 5.441406 -65.875 4.507812 -71.699219 C 4.242188 -73.175781 4.269531 -74.660156 3.28125 -76.121094 Z M 3.28125 -76.121094 "/></g></g></g><g fill="#000000" fill-opacity="1"><g transform="translate(311.629482, 186.474956)"><g><path d="M 13.210938 -20.535156 C 12.585938 -22.558594 11.9375 -24.492188 11.199219 -26.457031 C 10.800781 -27.492188 10.039062 -27.679688 9.03125 -27.222656 C 8.253906 -26.886719 7.710938 -26.382812 7.410156 -25.5625 C 7.246094 -25.035156 7.023438 -24.480469 6.804688 -23.777344 C 6.535156 -24.148438 6.300781 -24.320312 6.238281 -24.578125 C 5.351562 -26.683594 4.351562 -27.1875 2.390625 -26.300781 C 1.5 -25.90625 0.640625 -25.304688 0.0742188 -24.566406 C -0.746094 -23.476562 -1.507812 -22.269531 -2.003906 -20.976562 C -3.757812 -15.796875 -4.199219 -10.496094 -3.363281 -5.132812 C -3.226562 -4.179688 -2.855469 -3.195312 -2.460938 -2.304688 C -1.640625 -0.605469 -0.585938 -0.277344 1.167969 -1.128906 C 2.464844 -1.738281 3.429688 -2.832031 4.042969 -4.039062 C 4.851562 -5.710938 5.632812 -7.441406 6.234375 -9.230469 C 7.023438 -11.773438 7.640625 -14.375 8.34375 -16.949219 C 8.53125 -17.707031 8.804688 -18.441406 9.132812 -19.492188 C 9.554688 -18.832031 9.761719 -18.574219 9.945312 -18.230469 C 10.710938 -16.210938 11.480469 -14.191406 12.25 -12.171875 C 13.289062 -9.636719 14.703125 -7.367188 16.375 -5.308594 C 18.074219 -3.339844 19.148438 -3.246094 21.5625 -4.660156 C 20.105469 -4.777344 19.21875 -5.628906 18.613281 -6.78125 C 17.457031 -9.113281 16.277344 -11.355469 15.296875 -13.777344 C 14.4375 -15.96875 13.953125 -18.285156 13.210938 -20.535156 Z M 0.917969 -3.421875 C -0.375 -5.457031 -0.242188 -7.4375 -0.308594 -9.382812 C -0.34375 -15.3125 0.652344 -20.394531 2.480469 -23.484375 C 4.359375 -22.5625 3.890625 -19.964844 5.765625 -19.335938 C 5.558594 -13.867188 3.4375 -6.730469 0.917969 -3.421875 Z M 0.917969 -3.421875 "/></g></g></g></svg>